# xmcd
#
# Track frame offsets:
#	150
#	29246
#	42766
#	70510
#	89556
#	106295
#	124652
#	142685
#	163692
#
# Disc length: 2489 seconds
#
# Revision: 1
# Processed by: cddbd v1.5.1PL0 Copyright (c) Steve Scherf et al.
# Submitted via: audiograbber 1.82.02
#
DISCID=7309b709
DTITLE=Stefan Diestelmann - Hofmusik
DYEAR=1900
DGENRE=Blues
TTITLE0=Introduction
TTITLE1=Bluesgeschichte
TTITLE2=Instrumental #1
TTITLE3=Alte Leute Blues
TTITLE4=Good Morning Blues
TTITLE5=Instrumental #2
TTITLE6=Blues von der guten Erziehung
TTITLE7=Instrumental #3
TTITLE8=Bottleneck
EXTD=
EXTT0=
EXTT1=
EXTT2=
EXTT3=
EXTT4=
EXTT5=
EXTT6=
EXTT7=
EXTT8=
PLAYORDER=
